<mxfile host="app.diagrams.net" agent="Mozilla/5.0 (Windows NT 10.0; Win64; x64) AppleWebKit/537.36 (KHTML, like Gecko) Chrome/133.0.0.0 Safari/537.36" version="27.0.9">
  <diagram name="KnowMate-Chen-ER" id="q2SzEv0ykGGaaxEPdiA9">
    <mxGraphModel dx="3622" dy="95" grid="0" gridSize="10" guides="1" tooltips="1" connect="1" arrows="1" fold="1" page="0" pageScale="1" pageWidth="827" pageHeight="1169" background="none" math="0" shadow="0">
      <root>
        <mxCell id="0" />
        <mxCell id="1" parent="0" />
        <mxCell id="Rb403pn9LJJC4iDfCMh6-547" value="用户" style="whiteSpace=wrap;html=1;align=center;fillColor=#dae8fc;strokeColor=#6c8ebf;" parent="1" vertex="1">
          <mxGeometry x="-485" y="1773" width="100" height="40" as="geometry" />
        </mxCell>
        <mxCell id="Rb403pn9LJJC4iDfCMh6-548" value="用户 ID" style="ellipse;whiteSpace=wrap;html=1;align=center;fontStyle=4;fillColor=#fff2cc;strokeColor=#d6b656;" parent="1" vertex="1">
          <mxGeometry x="-630" y="1605" width="80" height="40" as="geometry" />
        </mxCell>
        <mxCell id="Rb403pn9LJJC4iDfCMh6-549" value="用户名" style="ellipse;whiteSpace=wrap;html=1;align=center;fillColor=#d5e8d4;strokeColor=#82b366;" parent="1" vertex="1">
          <mxGeometry x="-580" y="1563" width="80" height="40" as="geometry" />
        </mxCell>
        <mxCell id="Rb403pn9LJJC4iDfCMh6-550" value="邮箱地址" style="ellipse;whiteSpace=wrap;html=1;align=center;fillColor=#d5e8d4;strokeColor=#82b366;" parent="1" vertex="1">
          <mxGeometry x="-425" y="1594" width="80" height="40" as="geometry" />
        </mxCell>
        <mxCell id="Rb403pn9LJJC4iDfCMh6-551" value="手机号" style="ellipse;whiteSpace=wrap;html=1;align=center;fillColor=#d5e8d4;strokeColor=#82b366;" parent="1" vertex="1">
          <mxGeometry x="-410" y="1645" width="80" height="40" as="geometry" />
        </mxCell>
        <mxCell id="Rb403pn9LJJC4iDfCMh6-552" value="密码" style="ellipse;whiteSpace=wrap;html=1;align=center;fillColor=#d5e8d4;strokeColor=#82b366;" parent="1" vertex="1">
          <mxGeometry x="-395" y="1691" width="80" height="40" as="geometry" />
        </mxCell>
        <mxCell id="Rb403pn9LJJC4iDfCMh6-553" value="头像 URL" style="ellipse;whiteSpace=wrap;html=1;align=center;fillColor=#d5e8d4;strokeColor=#82b366;" parent="1" vertex="1">
          <mxGeometry x="-370" y="1734" width="80" height="40" as="geometry" />
        </mxCell>
        <mxCell id="Rb403pn9LJJC4iDfCMh6-554" value="个人简介" style="ellipse;whiteSpace=wrap;html=1;align=center;fillColor=#d5e8d4;strokeColor=#82b366;" parent="1" vertex="1">
          <mxGeometry x="-496" y="1563" width="80" height="40" as="geometry" />
        </mxCell>
        <mxCell id="Rb403pn9LJJC4iDfCMh6-555" value="用户角色" style="ellipse;whiteSpace=wrap;html=1;align=center;fillColor=#e1d5e7;strokeColor=#9673a6;dashed=1;" parent="1" vertex="1">
          <mxGeometry x="-655" y="1756" width="80" height="40" as="geometry" />
        </mxCell>
        <mxCell id="Rb403pn9LJJC4iDfCMh6-556" value="真实姓名" style="ellipse;whiteSpace=wrap;html=1;align=center;fillColor=#d5e8d4;strokeColor=#82b366;" parent="1" vertex="1">
          <mxGeometry x="-658" y="1707" width="80" height="40" as="geometry" />
        </mxCell>
        <mxCell id="Rb403pn9LJJC4iDfCMh6-557" value="性别" style="ellipse;whiteSpace=wrap;html=1;align=center;fillColor=#d5e8d4;strokeColor=#82b366;" parent="1" vertex="1">
          <mxGeometry x="-665" y="1661" width="80" height="40" as="geometry" />
        </mxCell>
        <mxCell id="Rb403pn9LJJC4iDfCMh6-558" value="" style="endArrow=none;html=1;rounded=0;exitX=1;exitY=1;exitDx=0;exitDy=0;entryX=0.5;entryY=0;entryDx=0;entryDy=0;" parent="1" source="Rb403pn9LJJC4iDfCMh6-548" target="Rb403pn9LJJC4iDfCMh6-547" edge="1">
          <mxGeometry relative="1" as="geometry" />
        </mxCell>
        <mxCell id="Rb403pn9LJJC4iDfCMh6-559" value="" style="endArrow=none;html=1;rounded=0;exitX=0.5;exitY=1;exitDx=0;exitDy=0;entryX=0.5;entryY=0;entryDx=0;entryDy=0;" parent="1" source="Rb403pn9LJJC4iDfCMh6-549" target="Rb403pn9LJJC4iDfCMh6-547" edge="1">
          <mxGeometry relative="1" as="geometry" />
        </mxCell>
        <mxCell id="Rb403pn9LJJC4iDfCMh6-560" value="" style="endArrow=none;html=1;rounded=0;exitX=0;exitY=1;exitDx=0;exitDy=0;entryX=0.5;entryY=0;entryDx=0;entryDy=0;" parent="1" source="Rb403pn9LJJC4iDfCMh6-550" target="Rb403pn9LJJC4iDfCMh6-547" edge="1">
          <mxGeometry relative="1" as="geometry" />
        </mxCell>
        <mxCell id="Rb403pn9LJJC4iDfCMh6-561" value="" style="endArrow=none;html=1;rounded=0;exitX=0;exitY=1;exitDx=0;exitDy=0;entryX=0.5;entryY=0;entryDx=0;entryDy=0;" parent="1" source="Rb403pn9LJJC4iDfCMh6-551" target="Rb403pn9LJJC4iDfCMh6-547" edge="1">
          <mxGeometry relative="1" as="geometry" />
        </mxCell>
        <mxCell id="Rb403pn9LJJC4iDfCMh6-562" value="" style="endArrow=none;html=1;rounded=0;exitX=0;exitY=0.5;exitDx=0;exitDy=0;entryX=0.5;entryY=0;entryDx=0;entryDy=0;" parent="1" source="Rb403pn9LJJC4iDfCMh6-552" target="Rb403pn9LJJC4iDfCMh6-547" edge="1">
          <mxGeometry relative="1" as="geometry" />
        </mxCell>
        <mxCell id="Rb403pn9LJJC4iDfCMh6-563" value="" style="endArrow=none;html=1;rounded=0;exitX=0;exitY=0.5;exitDx=0;exitDy=0;entryX=1;entryY=0.5;entryDx=0;entryDy=0;" parent="1" source="Rb403pn9LJJC4iDfCMh6-553" target="Rb403pn9LJJC4iDfCMh6-547" edge="1">
          <mxGeometry relative="1" as="geometry" />
        </mxCell>
        <mxCell id="Rb403pn9LJJC4iDfCMh6-564" value="" style="endArrow=none;html=1;rounded=0;exitX=0.5;exitY=1;exitDx=0;exitDy=0;entryX=0.5;entryY=0;entryDx=0;entryDy=0;" parent="1" source="Rb403pn9LJJC4iDfCMh6-554" target="Rb403pn9LJJC4iDfCMh6-547" edge="1">
          <mxGeometry relative="1" as="geometry" />
        </mxCell>
        <mxCell id="Rb403pn9LJJC4iDfCMh6-565" value="" style="endArrow=none;html=1;rounded=0;exitX=1;exitY=0.5;exitDx=0;exitDy=0;entryX=0;entryY=0.5;entryDx=0;entryDy=0;" parent="1" source="Rb403pn9LJJC4iDfCMh6-555" target="Rb403pn9LJJC4iDfCMh6-547" edge="1">
          <mxGeometry relative="1" as="geometry" />
        </mxCell>
        <mxCell id="Rb403pn9LJJC4iDfCMh6-566" value="" style="endArrow=none;html=1;rounded=0;exitX=1;exitY=0.5;exitDx=0;exitDy=0;entryX=0;entryY=0.5;entryDx=0;entryDy=0;" parent="1" source="Rb403pn9LJJC4iDfCMh6-556" target="Rb403pn9LJJC4iDfCMh6-547" edge="1">
          <mxGeometry relative="1" as="geometry" />
        </mxCell>
        <mxCell id="Rb403pn9LJJC4iDfCMh6-567" value="" style="endArrow=none;html=1;rounded=0;exitX=1;exitY=0.5;exitDx=0;exitDy=0;entryX=0;entryY=0.5;entryDx=0;entryDy=0;" parent="1" source="Rb403pn9LJJC4iDfCMh6-557" target="Rb403pn9LJJC4iDfCMh6-547" edge="1">
          <mxGeometry relative="1" as="geometry" />
        </mxCell>
        <mxCell id="Rb403pn9LJJC4iDfCMh6-568" value="帖子" style="whiteSpace=wrap;html=1;align=center;fillColor=#dae8fc;strokeColor=#6c8ebf;" parent="1" vertex="1">
          <mxGeometry x="-1133" y="1862" width="100" height="40" as="geometry" />
        </mxCell>
        <mxCell id="Rb403pn9LJJC4iDfCMh6-569" value="帖子 ID" style="ellipse;whiteSpace=wrap;html=1;align=center;fontStyle=4;fillColor=#fff2cc;strokeColor=#d6b656;" parent="1" vertex="1">
          <mxGeometry x="-1260" y="1694" width="80" height="40" as="geometry" />
        </mxCell>
        <mxCell id="Rb403pn9LJJC4iDfCMh6-570" value="帖子标题" style="ellipse;whiteSpace=wrap;html=1;align=center;fillColor=#d5e8d4;strokeColor=#82b366;" parent="1" vertex="1">
          <mxGeometry x="-1186" y="1654" width="80" height="40" as="geometry" />
        </mxCell>
        <mxCell id="Rb403pn9LJJC4iDfCMh6-571" value="帖子内容" style="ellipse;whiteSpace=wrap;html=1;align=center;fillColor=#d5e8d4;strokeColor=#82b366;" parent="1" vertex="1">
          <mxGeometry x="-1106" y="1645" width="80" height="40" as="geometry" />
        </mxCell>
        <mxCell id="Rb403pn9LJJC4iDfCMh6-572" value="点赞数量" style="ellipse;whiteSpace=wrap;html=1;align=center;fillColor=#d5e8d4;strokeColor=#82b366;" parent="1" vertex="1">
          <mxGeometry x="-1041" y="1676" width="80" height="40" as="geometry" />
        </mxCell>
        <mxCell id="Rb403pn9LJJC4iDfCMh6-573" value="收藏数量" style="ellipse;whiteSpace=wrap;html=1;align=center;fillColor=#d5e8d4;strokeColor=#82b366;" parent="1" vertex="1">
          <mxGeometry x="-1004" y="1716" width="80" height="40" as="geometry" />
        </mxCell>
        <mxCell id="Rb403pn9LJJC4iDfCMh6-574" value="评论数量" style="ellipse;whiteSpace=wrap;html=1;align=center;fillColor=#d5e8d4;strokeColor=#82b366;" parent="1" vertex="1">
          <mxGeometry x="-1291" y="1734" width="80" height="40" as="geometry" />
        </mxCell>
        <mxCell id="Rb403pn9LJJC4iDfCMh6-575" value="发布时间" style="ellipse;whiteSpace=wrap;html=1;align=center;fillColor=#d5e8d4;strokeColor=#82b366;" parent="1" vertex="1">
          <mxGeometry x="-1296" y="1779" width="80" height="40" as="geometry" />
        </mxCell>
        <mxCell id="Rb403pn9LJJC4iDfCMh6-576" value="" style="endArrow=none;html=1;rounded=0;exitX=1;exitY=1;exitDx=0;exitDy=0;entryX=0.5;entryY=0;entryDx=0;entryDy=0;" parent="1" source="Rb403pn9LJJC4iDfCMh6-569" target="Rb403pn9LJJC4iDfCMh6-568" edge="1">
          <mxGeometry relative="1" as="geometry" />
        </mxCell>
        <mxCell id="Rb403pn9LJJC4iDfCMh6-577" value="" style="endArrow=none;html=1;rounded=0;exitX=0.5;exitY=1;exitDx=0;exitDy=0;entryX=0.5;entryY=0;entryDx=0;entryDy=0;" parent="1" source="Rb403pn9LJJC4iDfCMh6-570" target="Rb403pn9LJJC4iDfCMh6-568" edge="1">
          <mxGeometry relative="1" as="geometry" />
        </mxCell>
        <mxCell id="Rb403pn9LJJC4iDfCMh6-578" value="" style="endArrow=none;html=1;rounded=0;exitX=0.5;exitY=1;exitDx=0;exitDy=0;entryX=0.5;entryY=0;entryDx=0;entryDy=0;" parent="1" source="Rb403pn9LJJC4iDfCMh6-571" target="Rb403pn9LJJC4iDfCMh6-568" edge="1">
          <mxGeometry relative="1" as="geometry" />
        </mxCell>
        <mxCell id="Rb403pn9LJJC4iDfCMh6-579" value="" style="endArrow=none;html=1;rounded=0;exitX=0;exitY=1;exitDx=0;exitDy=0;entryX=0.5;entryY=0;entryDx=0;entryDy=0;" parent="1" source="Rb403pn9LJJC4iDfCMh6-572" target="Rb403pn9LJJC4iDfCMh6-568" edge="1">
          <mxGeometry relative="1" as="geometry" />
        </mxCell>
        <mxCell id="Rb403pn9LJJC4iDfCMh6-580" value="" style="endArrow=none;html=1;rounded=0;exitX=0;exitY=1;exitDx=0;exitDy=0;entryX=0.5;entryY=0;entryDx=0;entryDy=0;" parent="1" source="Rb403pn9LJJC4iDfCMh6-573" target="Rb403pn9LJJC4iDfCMh6-568" edge="1">
          <mxGeometry relative="1" as="geometry" />
        </mxCell>
        <mxCell id="Rb403pn9LJJC4iDfCMh6-581" value="" style="endArrow=none;html=1;rounded=0;entryX=0.5;entryY=0;entryDx=0;entryDy=0;exitX=1;exitY=1;exitDx=0;exitDy=0;" parent="1" source="Rb403pn9LJJC4iDfCMh6-574" target="Rb403pn9LJJC4iDfCMh6-568" edge="1">
          <mxGeometry relative="1" as="geometry">
            <mxPoint x="-1190" y="1822" as="sourcePoint" />
          </mxGeometry>
        </mxCell>
        <mxCell id="Rb403pn9LJJC4iDfCMh6-582" value="" style="endArrow=none;html=1;rounded=0;exitX=1;exitY=1;exitDx=0;exitDy=0;entryX=0.5;entryY=0;entryDx=0;entryDy=0;" parent="1" source="Rb403pn9LJJC4iDfCMh6-575" target="Rb403pn9LJJC4iDfCMh6-568" edge="1">
          <mxGeometry relative="1" as="geometry" />
        </mxCell>
        <mxCell id="Rb403pn9LJJC4iDfCMh6-583" value="评论" style="whiteSpace=wrap;html=1;align=center;fillColor=#dae8fc;strokeColor=#6c8ebf;" parent="1" vertex="1">
          <mxGeometry x="-995" y="2111" width="100" height="40" as="geometry" />
        </mxCell>
        <mxCell id="Rb403pn9LJJC4iDfCMh6-584" value="评论 ID" style="ellipse;whiteSpace=wrap;html=1;align=center;fontStyle=4;fillColor=#fff2cc;strokeColor=#d6b656;" parent="1" vertex="1">
          <mxGeometry x="-1069" y="2207" width="80" height="40" as="geometry" />
        </mxCell>
        <mxCell id="Rb403pn9LJJC4iDfCMh6-585" value="评论内容" style="ellipse;whiteSpace=wrap;html=1;align=center;fillColor=#d5e8d4;strokeColor=#82b366;" parent="1" vertex="1">
          <mxGeometry x="-895" y="2207" width="80" height="40" as="geometry" />
        </mxCell>
        <mxCell id="Rb403pn9LJJC4iDfCMh6-586" value="评论时间" style="ellipse;whiteSpace=wrap;html=1;align=center;fillColor=#d5e8d4;strokeColor=#82b366;" parent="1" vertex="1">
          <mxGeometry x="-982" y="2211" width="80" height="40" as="geometry" />
        </mxCell>
        <mxCell id="Rb403pn9LJJC4iDfCMh6-587" value="" style="endArrow=none;html=1;rounded=0;exitX=0.5;exitY=0;exitDx=0;exitDy=0;entryX=0.5;entryY=1;entryDx=0;entryDy=0;" parent="1" source="Rb403pn9LJJC4iDfCMh6-584" target="Rb403pn9LJJC4iDfCMh6-583" edge="1">
          <mxGeometry relative="1" as="geometry" />
        </mxCell>
        <mxCell id="Rb403pn9LJJC4iDfCMh6-588" value="" style="endArrow=none;html=1;rounded=0;exitX=0.5;exitY=0;exitDx=0;exitDy=0;entryX=0.5;entryY=1;entryDx=0;entryDy=0;" parent="1" source="Rb403pn9LJJC4iDfCMh6-585" target="Rb403pn9LJJC4iDfCMh6-583" edge="1">
          <mxGeometry relative="1" as="geometry">
            <mxPoint x="-911" y="2141" as="targetPoint" />
          </mxGeometry>
        </mxCell>
        <mxCell id="Rb403pn9LJJC4iDfCMh6-589" value="" style="endArrow=none;html=1;rounded=0;exitX=0.5;exitY=0;exitDx=0;exitDy=0;entryX=0.5;entryY=1;entryDx=0;entryDy=0;" parent="1" source="Rb403pn9LJJC4iDfCMh6-586" target="Rb403pn9LJJC4iDfCMh6-583" edge="1">
          <mxGeometry relative="1" as="geometry" />
        </mxCell>
        <mxCell id="Rb403pn9LJJC4iDfCMh6-590" value="课程" style="whiteSpace=wrap;html=1;align=center;fillColor=#dae8fc;strokeColor=#6c8ebf;" parent="1" vertex="1">
          <mxGeometry x="-30" y="1852" width="100" height="40" as="geometry" />
        </mxCell>
        <mxCell id="Rb403pn9LJJC4iDfCMh6-591" value="课程 ID" style="ellipse;whiteSpace=wrap;html=1;align=center;fontStyle=4;fillColor=#fff2cc;strokeColor=#d6b656;" parent="1" vertex="1">
          <mxGeometry x="75" y="1792" width="80" height="40" as="geometry" />
        </mxCell>
        <mxCell id="Rb403pn9LJJC4iDfCMh6-592" value="课程名称" style="ellipse;whiteSpace=wrap;html=1;align=center;fillColor=#d5e8d4;strokeColor=#82b366;" parent="1" vertex="1">
          <mxGeometry x="-88" y="1756" width="80" height="40" as="geometry" />
        </mxCell>
        <mxCell id="Rb403pn9LJJC4iDfCMh6-593" value="课程描述" style="ellipse;whiteSpace=wrap;html=1;align=center;fillColor=#d5e8d4;strokeColor=#82b366;" parent="1" vertex="1">
          <mxGeometry x="-35" y="1721" width="80" height="40" as="geometry" />
        </mxCell>
        <mxCell id="Rb403pn9LJJC4iDfCMh6-594" value="创建时间" style="ellipse;whiteSpace=wrap;html=1;align=center;fillColor=#d5e8d4;strokeColor=#82b366;" parent="1" vertex="1">
          <mxGeometry x="34" y="1747" width="80" height="40" as="geometry" />
        </mxCell>
        <mxCell id="Rb403pn9LJJC4iDfCMh6-595" value="" style="endArrow=none;html=1;rounded=0;exitX=0;exitY=1;exitDx=0;exitDy=0;entryX=0.5;entryY=0;entryDx=0;entryDy=0;" parent="1" source="Rb403pn9LJJC4iDfCMh6-591" target="Rb403pn9LJJC4iDfCMh6-590" edge="1">
          <mxGeometry relative="1" as="geometry">
            <mxPoint x="4" y="1808" as="targetPoint" />
          </mxGeometry>
        </mxCell>
        <mxCell id="Rb403pn9LJJC4iDfCMh6-596" value="" style="endArrow=none;html=1;rounded=0;exitX=0.5;exitY=1;exitDx=0;exitDy=0;entryX=0.5;entryY=0;entryDx=0;entryDy=0;" parent="1" source="Rb403pn9LJJC4iDfCMh6-592" target="Rb403pn9LJJC4iDfCMh6-590" edge="1">
          <mxGeometry relative="1" as="geometry">
            <mxPoint x="4" y="1808" as="targetPoint" />
          </mxGeometry>
        </mxCell>
        <mxCell id="Rb403pn9LJJC4iDfCMh6-597" value="" style="endArrow=none;html=1;rounded=0;exitX=0.5;exitY=1;exitDx=0;exitDy=0;entryX=0.5;entryY=0;entryDx=0;entryDy=0;" parent="1" source="Rb403pn9LJJC4iDfCMh6-593" target="Rb403pn9LJJC4iDfCMh6-590" edge="1">
          <mxGeometry relative="1" as="geometry">
            <mxPoint x="4" y="1808" as="targetPoint" />
          </mxGeometry>
        </mxCell>
        <mxCell id="Rb403pn9LJJC4iDfCMh6-598" value="" style="endArrow=none;html=1;rounded=0;exitX=0.5;exitY=1;exitDx=0;exitDy=0;entryX=0.5;entryY=0;entryDx=0;entryDy=0;" parent="1" source="Rb403pn9LJJC4iDfCMh6-594" target="Rb403pn9LJJC4iDfCMh6-590" edge="1">
          <mxGeometry relative="1" as="geometry">
            <mxPoint x="4" y="1808" as="targetPoint" />
          </mxGeometry>
        </mxCell>
        <mxCell id="Rb403pn9LJJC4iDfCMh6-599" value="作业" style="whiteSpace=wrap;html=1;align=center;fillColor=#dae8fc;strokeColor=#6c8ebf;" parent="1" vertex="1">
          <mxGeometry x="84" y="2091" width="100" height="40" as="geometry" />
        </mxCell>
        <mxCell id="Rb403pn9LJJC4iDfCMh6-600" value="作业 ID" style="ellipse;whiteSpace=wrap;html=1;align=center;fontStyle=4;fillColor=#fff2cc;strokeColor=#d6b656;" parent="1" vertex="1">
          <mxGeometry x="258" y="2140" width="80" height="40" as="geometry" />
        </mxCell>
        <mxCell id="Rb403pn9LJJC4iDfCMh6-601" value="作业标题" style="ellipse;whiteSpace=wrap;html=1;align=center;fillColor=#d5e8d4;strokeColor=#82b366;" parent="1" vertex="1">
          <mxGeometry x="211" y="1968" width="80" height="40" as="geometry" />
        </mxCell>
        <mxCell id="Rb403pn9LJJC4iDfCMh6-602" value="作业描述" style="ellipse;whiteSpace=wrap;html=1;align=center;fillColor=#d5e8d4;strokeColor=#82b366;" parent="1" vertex="1">
          <mxGeometry x="262" y="2007" width="80" height="40" as="geometry" />
        </mxCell>
        <mxCell id="Rb403pn9LJJC4iDfCMh6-603" value="截止时间" style="ellipse;whiteSpace=wrap;html=1;align=center;fillColor=#d5e8d4;strokeColor=#82b366;" parent="1" vertex="1">
          <mxGeometry x="282" y="2057" width="80" height="40" as="geometry" />
        </mxCell>
        <mxCell id="Rb403pn9LJJC4iDfCMh6-604" value="创建时间" style="ellipse;whiteSpace=wrap;html=1;align=center;fillColor=#d5e8d4;strokeColor=#82b366;" parent="1" vertex="1">
          <mxGeometry x="294" y="2100" width="80" height="40" as="geometry" />
        </mxCell>
        <mxCell id="Rb403pn9LJJC4iDfCMh6-605" value="" style="endArrow=none;html=1;rounded=0;exitX=0;exitY=0.5;exitDx=0;exitDy=0;entryX=1;entryY=0.5;entryDx=0;entryDy=0;" parent="1" source="Rb403pn9LJJC4iDfCMh6-600" target="Rb403pn9LJJC4iDfCMh6-599" edge="1">
          <mxGeometry relative="1" as="geometry" />
        </mxCell>
        <mxCell id="Rb403pn9LJJC4iDfCMh6-606" value="" style="endArrow=none;html=1;rounded=0;exitX=0.5;exitY=1;exitDx=0;exitDy=0;entryX=1;entryY=0.5;entryDx=0;entryDy=0;" parent="1" source="Rb403pn9LJJC4iDfCMh6-601" target="Rb403pn9LJJC4iDfCMh6-599" edge="1">
          <mxGeometry relative="1" as="geometry" />
        </mxCell>
        <mxCell id="Rb403pn9LJJC4iDfCMh6-607" value="" style="endArrow=none;html=1;rounded=0;exitX=0;exitY=1;exitDx=0;exitDy=0;entryX=1;entryY=0.5;entryDx=0;entryDy=0;" parent="1" source="Rb403pn9LJJC4iDfCMh6-602" target="Rb403pn9LJJC4iDfCMh6-599" edge="1">
          <mxGeometry relative="1" as="geometry" />
        </mxCell>
        <mxCell id="Rb403pn9LJJC4iDfCMh6-608" value="" style="endArrow=none;html=1;rounded=0;exitX=0;exitY=0.5;exitDx=0;exitDy=0;entryX=1;entryY=0.5;entryDx=0;entryDy=0;" parent="1" source="Rb403pn9LJJC4iDfCMh6-603" target="Rb403pn9LJJC4iDfCMh6-599" edge="1">
          <mxGeometry relative="1" as="geometry" />
        </mxCell>
        <mxCell id="Rb403pn9LJJC4iDfCMh6-609" value="" style="endArrow=none;html=1;rounded=0;exitX=0;exitY=0.5;exitDx=0;exitDy=0;entryX=1;entryY=0.5;entryDx=0;entryDy=0;" parent="1" source="Rb403pn9LJJC4iDfCMh6-604" target="Rb403pn9LJJC4iDfCMh6-599" edge="1">
          <mxGeometry relative="1" as="geometry" />
        </mxCell>
        <mxCell id="Rb403pn9LJJC4iDfCMh6-610" value="作业提交" style="whiteSpace=wrap;html=1;align=center;fillColor=#dae8fc;strokeColor=#6c8ebf;" parent="1" vertex="1">
          <mxGeometry x="-179" y="2157" width="100" height="40" as="geometry" />
        </mxCell>
        <mxCell id="Rb403pn9LJJC4iDfCMh6-611" value="作业提交 ID" style="ellipse;whiteSpace=wrap;html=1;align=center;fontStyle=4;fillColor=#fff2cc;strokeColor=#d6b656;" parent="1" vertex="1">
          <mxGeometry x="-299" y="2206" width="80" height="40" as="geometry" />
        </mxCell>
        <mxCell id="Rb403pn9LJJC4iDfCMh6-612" value="提交文本内容" style="ellipse;whiteSpace=wrap;html=1;align=center;fillColor=#d5e8d4;strokeColor=#82b366;" parent="1" vertex="1">
          <mxGeometry x="-229" y="2294" width="80" height="40" as="geometry" />
        </mxCell>
        <mxCell id="Rb403pn9LJJC4iDfCMh6-613" value="提交时间" style="ellipse;whiteSpace=wrap;html=1;align=center;fillColor=#d5e8d4;strokeColor=#82b366;" parent="1" vertex="1">
          <mxGeometry x="-169" y="2326" width="80" height="40" as="geometry" />
        </mxCell>
        <mxCell id="Rb403pn9LJJC4iDfCMh6-614" value="分数" style="ellipse;whiteSpace=wrap;html=1;align=center;fillColor=#d5e8d4;strokeColor=#82b366;" parent="1" vertex="1">
          <mxGeometry x="-101" y="2299" width="80" height="40" as="geometry" />
        </mxCell>
        <mxCell id="Rb403pn9LJJC4iDfCMh6-615" value="批改时间" style="ellipse;whiteSpace=wrap;html=1;align=center;fillColor=#d5e8d4;strokeColor=#82b366;" parent="1" vertex="1">
          <mxGeometry x="-51" y="2214" width="80" height="40" as="geometry" />
        </mxCell>
        <mxCell id="Rb403pn9LJJC4iDfCMh6-616" value="教师评语" style="ellipse;whiteSpace=wrap;html=1;align=center;fillColor=#d5e8d4;strokeColor=#82b366;" parent="1" vertex="1">
          <mxGeometry x="-59" y="2259" width="80" height="40" as="geometry" />
        </mxCell>
        <mxCell id="Rb403pn9LJJC4iDfCMh6-617" value="提交文件链接" style="ellipse;whiteSpace=wrap;html=1;align=center;fillColor=#d5e8d4;strokeColor=#82b366;" parent="1" vertex="1">
          <mxGeometry x="-284" y="2254" width="80" height="40" as="geometry" />
        </mxCell>
        <mxCell id="Rb403pn9LJJC4iDfCMh6-618" value="" style="endArrow=none;html=1;rounded=0;exitX=1;exitY=0.5;exitDx=0;exitDy=0;entryX=0.5;entryY=1;entryDx=0;entryDy=0;" parent="1" source="Rb403pn9LJJC4iDfCMh6-611" target="Rb403pn9LJJC4iDfCMh6-610" edge="1">
          <mxGeometry relative="1" as="geometry" />
        </mxCell>
        <mxCell id="Rb403pn9LJJC4iDfCMh6-619" value="" style="endArrow=none;html=1;rounded=0;exitX=0.5;exitY=0;exitDx=0;exitDy=0;entryX=0.5;entryY=1;entryDx=0;entryDy=0;" parent="1" source="Rb403pn9LJJC4iDfCMh6-612" target="Rb403pn9LJJC4iDfCMh6-610" edge="1">
          <mxGeometry relative="1" as="geometry" />
        </mxCell>
        <mxCell id="Rb403pn9LJJC4iDfCMh6-620" value="" style="endArrow=none;html=1;rounded=0;exitX=0.5;exitY=0;exitDx=0;exitDy=0;entryX=0.5;entryY=1;entryDx=0;entryDy=0;" parent="1" source="Rb403pn9LJJC4iDfCMh6-613" target="Rb403pn9LJJC4iDfCMh6-610" edge="1">
          <mxGeometry relative="1" as="geometry" />
        </mxCell>
        <mxCell id="Rb403pn9LJJC4iDfCMh6-621" value="" style="endArrow=none;html=1;rounded=0;exitX=0.5;exitY=0;exitDx=0;exitDy=0;entryX=0.5;entryY=1;entryDx=0;entryDy=0;" parent="1" source="Rb403pn9LJJC4iDfCMh6-614" target="Rb403pn9LJJC4iDfCMh6-610" edge="1">
          <mxGeometry relative="1" as="geometry" />
        </mxCell>
        <mxCell id="Rb403pn9LJJC4iDfCMh6-622" value="" style="endArrow=none;html=1;rounded=0;exitX=0;exitY=0.5;exitDx=0;exitDy=0;entryX=0.5;entryY=1;entryDx=0;entryDy=0;" parent="1" source="Rb403pn9LJJC4iDfCMh6-615" target="Rb403pn9LJJC4iDfCMh6-610" edge="1">
          <mxGeometry relative="1" as="geometry" />
        </mxCell>
        <mxCell id="Rb403pn9LJJC4iDfCMh6-623" value="" style="endArrow=none;html=1;rounded=0;exitX=0;exitY=0.5;exitDx=0;exitDy=0;entryX=0.5;entryY=1;entryDx=0;entryDy=0;" parent="1" source="Rb403pn9LJJC4iDfCMh6-616" target="Rb403pn9LJJC4iDfCMh6-610" edge="1">
          <mxGeometry relative="1" as="geometry" />
        </mxCell>
        <mxCell id="Rb403pn9LJJC4iDfCMh6-624" value="" style="endArrow=none;html=1;rounded=0;exitX=1;exitY=0.5;exitDx=0;exitDy=0;entryX=0.5;entryY=1;entryDx=0;entryDy=0;" parent="1" source="Rb403pn9LJJC4iDfCMh6-617" target="Rb403pn9LJJC4iDfCMh6-610" edge="1">
          <mxGeometry relative="1" as="geometry" />
        </mxCell>
        <mxCell id="Rb403pn9LJJC4iDfCMh6-625" value="班级" style="whiteSpace=wrap;html=1;align=center;fillColor=#dae8fc;strokeColor=#6c8ebf;" parent="1" vertex="1">
          <mxGeometry x="-772" y="2370" width="100" height="40" as="geometry" />
        </mxCell>
        <mxCell id="Rb403pn9LJJC4iDfCMh6-626" value="班级 ID" style="ellipse;whiteSpace=wrap;html=1;align=center;fontStyle=4;fillColor=#fff2cc;strokeColor=#d6b656;" parent="1" vertex="1">
          <mxGeometry x="-878" y="2453" width="80" height="40" as="geometry" />
        </mxCell>
        <mxCell id="Rb403pn9LJJC4iDfCMh6-627" value="班级名称" style="ellipse;whiteSpace=wrap;html=1;align=center;fillColor=#d5e8d4;strokeColor=#82b366;" parent="1" vertex="1">
          <mxGeometry x="-813" y="2485" width="80" height="40" as="geometry" />
        </mxCell>
        <mxCell id="Rb403pn9LJJC4iDfCMh6-628" value="班级描述" style="ellipse;whiteSpace=wrap;html=1;align=center;fillColor=#d5e8d4;strokeColor=#82b366;" parent="1" vertex="1">
          <mxGeometry x="-652" y="2458" width="80" height="40" as="geometry" />
        </mxCell>
        <mxCell id="Rb403pn9LJJC4iDfCMh6-629" value="创建时间" style="ellipse;whiteSpace=wrap;html=1;align=center;fillColor=#d5e8d4;strokeColor=#82b366;" parent="1" vertex="1">
          <mxGeometry x="-727" y="2489" width="80" height="40" as="geometry" />
        </mxCell>
        <mxCell id="Rb403pn9LJJC4iDfCMh6-631" value="" style="endArrow=none;html=1;rounded=0;exitX=0.5;exitY=0;exitDx=0;exitDy=0;entryX=0.5;entryY=1;entryDx=0;entryDy=0;" parent="1" source="Rb403pn9LJJC4iDfCMh6-626" target="Rb403pn9LJJC4iDfCMh6-625" edge="1">
          <mxGeometry relative="1" as="geometry" />
        </mxCell>
        <mxCell id="Rb403pn9LJJC4iDfCMh6-632" value="" style="endArrow=none;html=1;rounded=0;exitX=0.5;exitY=0;exitDx=0;exitDy=0;entryX=0.5;entryY=1;entryDx=0;entryDy=0;" parent="1" source="Rb403pn9LJJC4iDfCMh6-627" target="Rb403pn9LJJC4iDfCMh6-625" edge="1">
          <mxGeometry relative="1" as="geometry" />
        </mxCell>
        <mxCell id="Rb403pn9LJJC4iDfCMh6-633" value="" style="endArrow=none;html=1;rounded=0;exitX=0.5;exitY=0;exitDx=0;exitDy=0;entryX=0.5;entryY=1;entryDx=0;entryDy=0;" parent="1" source="Rb403pn9LJJC4iDfCMh6-628" target="Rb403pn9LJJC4iDfCMh6-625" edge="1">
          <mxGeometry relative="1" as="geometry" />
        </mxCell>
        <mxCell id="Rb403pn9LJJC4iDfCMh6-634" value="" style="endArrow=none;html=1;rounded=0;exitX=0.5;exitY=0;exitDx=0;exitDy=0;entryX=0.5;entryY=1;entryDx=0;entryDy=0;" parent="1" source="Rb403pn9LJJC4iDfCMh6-629" target="Rb403pn9LJJC4iDfCMh6-625" edge="1">
          <mxGeometry relative="1" as="geometry" />
        </mxCell>
        <mxCell id="Rb403pn9LJJC4iDfCMh6-636" value="待办事项" style="whiteSpace=wrap;html=1;align=center;fillColor=#dae8fc;strokeColor=#6c8ebf;" parent="1" vertex="1">
          <mxGeometry x="-426" y="2321" width="100" height="40" as="geometry" />
        </mxCell>
        <mxCell id="Rb403pn9LJJC4iDfCMh6-637" value="待办事项 ID" style="ellipse;whiteSpace=wrap;html=1;align=center;fontStyle=4;fillColor=#fff2cc;strokeColor=#d6b656;" parent="1" vertex="1">
          <mxGeometry x="-545" y="2378" width="80" height="40" as="geometry" />
        </mxCell>
        <mxCell id="Rb403pn9LJJC4iDfCMh6-638" value="待办事项标题" style="ellipse;whiteSpace=wrap;html=1;align=center;fillColor=#d5e8d4;strokeColor=#82b366;" parent="1" vertex="1">
          <mxGeometry x="-506" y="2438" width="80" height="40" as="geometry" />
        </mxCell>
        <mxCell id="Rb403pn9LJJC4iDfCMh6-639" value="截止时间" style="ellipse;whiteSpace=wrap;html=1;align=center;fillColor=#d5e8d4;strokeColor=#82b366;" parent="1" vertex="1">
          <mxGeometry x="-416" y="2450" width="80" height="40" as="geometry" />
        </mxCell>
        <mxCell id="Rb403pn9LJJC4iDfCMh6-640" value="是否已完成" style="ellipse;whiteSpace=wrap;html=1;align=center;fillColor=#d5e8d4;strokeColor=#82b366;" parent="1" vertex="1">
          <mxGeometry x="-321" y="2440" width="80" height="40" as="geometry" />
        </mxCell>
        <mxCell id="Rb403pn9LJJC4iDfCMh6-641" value="创建时间" style="ellipse;whiteSpace=wrap;html=1;align=center;fillColor=#d5e8d4;strokeColor=#82b366;" parent="1" vertex="1">
          <mxGeometry x="-283" y="2386" width="80" height="40" as="geometry" />
        </mxCell>
        <mxCell id="Rb403pn9LJJC4iDfCMh6-642" value="" style="endArrow=none;html=1;rounded=0;exitX=1;exitY=0.5;exitDx=0;exitDy=0;entryX=0.5;entryY=1;entryDx=0;entryDy=0;" parent="1" source="Rb403pn9LJJC4iDfCMh6-637" target="Rb403pn9LJJC4iDfCMh6-636" edge="1">
          <mxGeometry relative="1" as="geometry" />
        </mxCell>
        <mxCell id="Rb403pn9LJJC4iDfCMh6-643" value="" style="endArrow=none;html=1;rounded=0;exitX=0.5;exitY=0;exitDx=0;exitDy=0;entryX=0.5;entryY=1;entryDx=0;entryDy=0;" parent="1" source="Rb403pn9LJJC4iDfCMh6-638" target="Rb403pn9LJJC4iDfCMh6-636" edge="1">
          <mxGeometry relative="1" as="geometry" />
        </mxCell>
        <mxCell id="Rb403pn9LJJC4iDfCMh6-644" value="" style="endArrow=none;html=1;rounded=0;exitX=0.5;exitY=0;exitDx=0;exitDy=0;entryX=0.5;entryY=1;entryDx=0;entryDy=0;" parent="1" source="Rb403pn9LJJC4iDfCMh6-639" target="Rb403pn9LJJC4iDfCMh6-636" edge="1">
          <mxGeometry relative="1" as="geometry" />
        </mxCell>
        <mxCell id="Rb403pn9LJJC4iDfCMh6-645" value="" style="endArrow=none;html=1;rounded=0;exitX=0.5;exitY=0;exitDx=0;exitDy=0;entryX=0.5;entryY=1;entryDx=0;entryDy=0;" parent="1" source="Rb403pn9LJJC4iDfCMh6-640" target="Rb403pn9LJJC4iDfCMh6-636" edge="1">
          <mxGeometry relative="1" as="geometry" />
        </mxCell>
        <mxCell id="Rb403pn9LJJC4iDfCMh6-646" value="" style="endArrow=none;html=1;rounded=0;exitX=0;exitY=0.5;exitDx=0;exitDy=0;entryX=0.5;entryY=1;entryDx=0;entryDy=0;" parent="1" source="Rb403pn9LJJC4iDfCMh6-641" target="Rb403pn9LJJC4iDfCMh6-636" edge="1">
          <mxGeometry relative="1" as="geometry" />
        </mxCell>
        <mxCell id="Rb403pn9LJJC4iDfCMh6-647" value="发布" style="shape=rhombus;perimeter=rhombusPerimeter;whiteSpace=wrap;html=1;align=center;fillColor=#ffe6cc;strokeColor=#d79b00;rotation=0;" parent="1" vertex="1">
          <mxGeometry x="-832" y="1878" width="100" height="60" as="geometry" />
        </mxCell>
        <mxCell id="Rb403pn9LJJC4iDfCMh6-648" value="" style="endArrow=none;html=1;rounded=0;exitX=0.5;exitY=1;exitDx=0;exitDy=0;entryX=1;entryY=0.5;entryDx=0;entryDy=0;" parent="1" source="Rb403pn9LJJC4iDfCMh6-547" target="Rb403pn9LJJC4iDfCMh6-647" edge="1">
          <mxGeometry relative="1" as="geometry" />
        </mxCell>
        <mxCell id="Y43yZf5SG8oLRP0nsFtJ-4" value="1" style="edgeLabel;html=1;align=center;verticalAlign=middle;resizable=0;points=[];" parent="Rb403pn9LJJC4iDfCMh6-648" vertex="1" connectable="0">
          <mxGeometry x="-0.4106" y="-2" relative="1" as="geometry">
            <mxPoint x="2" y="2" as="offset" />
          </mxGeometry>
        </mxCell>
        <mxCell id="Rb403pn9LJJC4iDfCMh6-649" value="" style="endArrow=none;html=1;rounded=0;exitX=1;exitY=0.5;exitDx=0;exitDy=0;entryX=0;entryY=0.5;entryDx=0;entryDy=0;" parent="1" source="Rb403pn9LJJC4iDfCMh6-568" target="Rb403pn9LJJC4iDfCMh6-647" edge="1">
          <mxGeometry relative="1" as="geometry" />
        </mxCell>
        <mxCell id="Y43yZf5SG8oLRP0nsFtJ-5" value="N" style="edgeLabel;html=1;align=center;verticalAlign=middle;resizable=0;points=[];" parent="Rb403pn9LJJC4iDfCMh6-649" vertex="1" connectable="0">
          <mxGeometry x="-0.3707" y="1" relative="1" as="geometry">
            <mxPoint as="offset" />
          </mxGeometry>
        </mxCell>
        <mxCell id="Rb403pn9LJJC4iDfCMh6-652" value="发表" style="shape=rhombus;perimeter=rhombusPerimeter;whiteSpace=wrap;html=1;align=center;fillColor=#ffe6cc;strokeColor=#d79b00;rotation=-30;" parent="1" vertex="1">
          <mxGeometry x="-775" y="2064" width="100" height="60" as="geometry" />
        </mxCell>
        <mxCell id="Rb403pn9LJJC4iDfCMh6-653" value="" style="endArrow=none;html=1;rounded=0;exitX=0.5;exitY=1;exitDx=0;exitDy=0;entryX=1;entryY=0.5;entryDx=0;entryDy=0;" parent="1" source="Rb403pn9LJJC4iDfCMh6-547" target="Rb403pn9LJJC4iDfCMh6-652" edge="1">
          <mxGeometry relative="1" as="geometry" />
        </mxCell>
        <mxCell id="Y43yZf5SG8oLRP0nsFtJ-16" value="1" style="edgeLabel;html=1;align=center;verticalAlign=middle;resizable=0;points=[];" parent="Rb403pn9LJJC4iDfCMh6-653" vertex="1" connectable="0">
          <mxGeometry x="-0.5553" y="-1" relative="1" as="geometry">
            <mxPoint as="offset" />
          </mxGeometry>
        </mxCell>
        <mxCell id="Rb403pn9LJJC4iDfCMh6-654" value="" style="endArrow=none;html=1;rounded=0;exitX=0;exitY=0.5;exitDx=0;exitDy=0;entryX=1;entryY=0.5;entryDx=0;entryDy=0;" parent="1" source="Rb403pn9LJJC4iDfCMh6-652" target="Rb403pn9LJJC4iDfCMh6-583" edge="1">
          <mxGeometry relative="1" as="geometry" />
        </mxCell>
        <mxCell id="Y43yZf5SG8oLRP0nsFtJ-17" value="N" style="edgeLabel;html=1;align=center;verticalAlign=middle;resizable=0;points=[];" parent="Rb403pn9LJJC4iDfCMh6-654" vertex="1" connectable="0">
          <mxGeometry x="0.468" relative="1" as="geometry">
            <mxPoint as="offset" />
          </mxGeometry>
        </mxCell>
        <mxCell id="Rb403pn9LJJC4iDfCMh6-657" value="被评论" style="shape=rhombus;perimeter=rhombusPerimeter;whiteSpace=wrap;html=1;align=center;fillColor=#ffe6cc;strokeColor=#d79b00;rotation=60;" parent="1" vertex="1">
          <mxGeometry x="-1066" y="1983" width="100" height="60" as="geometry" />
        </mxCell>
        <mxCell id="Rb403pn9LJJC4iDfCMh6-658" value="" style="endArrow=none;html=1;rounded=0;exitX=0.5;exitY=1;exitDx=0;exitDy=0;entryX=0;entryY=0.5;entryDx=0;entryDy=0;" parent="1" source="Rb403pn9LJJC4iDfCMh6-568" target="Rb403pn9LJJC4iDfCMh6-657" edge="1">
          <mxGeometry relative="1" as="geometry" />
        </mxCell>
        <mxCell id="Y43yZf5SG8oLRP0nsFtJ-18" value="1" style="edgeLabel;html=1;align=center;verticalAlign=middle;resizable=0;points=[];" parent="Rb403pn9LJJC4iDfCMh6-658" vertex="1" connectable="0">
          <mxGeometry x="-0.4185" relative="1" as="geometry">
            <mxPoint as="offset" />
          </mxGeometry>
        </mxCell>
        <mxCell id="Rb403pn9LJJC4iDfCMh6-659" value="" style="endArrow=none;html=1;rounded=0;exitX=0.5;exitY=0;exitDx=0;exitDy=0;entryX=1;entryY=0.5;entryDx=0;entryDy=0;" parent="1" source="Rb403pn9LJJC4iDfCMh6-583" target="Rb403pn9LJJC4iDfCMh6-657" edge="1">
          <mxGeometry relative="1" as="geometry" />
        </mxCell>
        <mxCell id="Y43yZf5SG8oLRP0nsFtJ-19" value="N" style="edgeLabel;html=1;align=center;verticalAlign=middle;resizable=0;points=[];" parent="Rb403pn9LJJC4iDfCMh6-659" vertex="1" connectable="0">
          <mxGeometry x="-0.3633" y="-1" relative="1" as="geometry">
            <mxPoint x="-5" y="-5" as="offset" />
          </mxGeometry>
        </mxCell>
        <mxCell id="Rb403pn9LJJC4iDfCMh6-662" value="点赞" style="shape=rhombus;perimeter=rhombusPerimeter;whiteSpace=wrap;html=1;align=center;fillColor=#ffe6cc;strokeColor=#d79b00;rotation=0;" parent="1" vertex="1">
          <mxGeometry x="-813" y="1946" width="100" height="60" as="geometry" />
        </mxCell>
        <mxCell id="Rb403pn9LJJC4iDfCMh6-663" value="" style="endArrow=none;html=1;rounded=0;exitX=0.5;exitY=1;exitDx=0;exitDy=0;entryX=1;entryY=0.5;entryDx=0;entryDy=0;" parent="1" source="Rb403pn9LJJC4iDfCMh6-547" target="Rb403pn9LJJC4iDfCMh6-662" edge="1">
          <mxGeometry relative="1" as="geometry" />
        </mxCell>
        <mxCell id="Y43yZf5SG8oLRP0nsFtJ-8" value="M" style="edgeLabel;html=1;align=center;verticalAlign=middle;resizable=0;points=[];" parent="Rb403pn9LJJC4iDfCMh6-663" vertex="1" connectable="0">
          <mxGeometry x="-0.4152" y="-1" relative="1" as="geometry">
            <mxPoint as="offset" />
          </mxGeometry>
        </mxCell>
        <mxCell id="Rb403pn9LJJC4iDfCMh6-664" value="" style="endArrow=none;html=1;rounded=0;entryX=0;entryY=0.5;entryDx=0;entryDy=0;" parent="1" target="Rb403pn9LJJC4iDfCMh6-662" edge="1">
          <mxGeometry relative="1" as="geometry">
            <mxPoint x="-1032" y="1882" as="sourcePoint" />
          </mxGeometry>
        </mxCell>
        <mxCell id="Y43yZf5SG8oLRP0nsFtJ-9" value="N" style="edgeLabel;html=1;align=center;verticalAlign=middle;resizable=0;points=[];" parent="Rb403pn9LJJC4iDfCMh6-664" vertex="1" connectable="0">
          <mxGeometry x="-0.4189" y="-1" relative="1" as="geometry">
            <mxPoint as="offset" />
          </mxGeometry>
        </mxCell>
        <mxCell id="Rb403pn9LJJC4iDfCMh6-667" value="点赞时间" style="ellipse;whiteSpace=wrap;html=1;align=center;fillColor=#d5e8d4;strokeColor=#82b366;" parent="1" vertex="1">
          <mxGeometry x="-839" y="2024" width="80" height="40" as="geometry" />
        </mxCell>
        <mxCell id="Rb403pn9LJJC4iDfCMh6-668" value="" style="endArrow=none;html=1;rounded=0;exitX=0.5;exitY=0;exitDx=0;exitDy=0;entryX=0.5;entryY=1;entryDx=0;entryDy=0;" parent="1" source="Rb403pn9LJJC4iDfCMh6-667" target="Rb403pn9LJJC4iDfCMh6-662" edge="1">
          <mxGeometry relative="1" as="geometry" />
        </mxCell>
        <mxCell id="Rb403pn9LJJC4iDfCMh6-669" value="收藏" style="shape=rhombus;perimeter=rhombusPerimeter;whiteSpace=wrap;html=1;align=center;fillColor=#ffe6cc;strokeColor=#d79b00;rotation=0;" parent="1" vertex="1">
          <mxGeometry x="-832" y="1803" width="100" height="60" as="geometry" />
        </mxCell>
        <mxCell id="Rb403pn9LJJC4iDfCMh6-670" value="" style="endArrow=none;html=1;rounded=0;exitX=0.5;exitY=1;exitDx=0;exitDy=0;entryX=1;entryY=0.5;entryDx=0;entryDy=0;" parent="1" source="Rb403pn9LJJC4iDfCMh6-547" target="Rb403pn9LJJC4iDfCMh6-669" edge="1">
          <mxGeometry relative="1" as="geometry" />
        </mxCell>
        <mxCell id="Y43yZf5SG8oLRP0nsFtJ-1" value="M" style="edgeLabel;html=1;align=center;verticalAlign=middle;resizable=0;points=[];" parent="Rb403pn9LJJC4iDfCMh6-670" vertex="1" connectable="0">
          <mxGeometry x="-0.4075" relative="1" as="geometry">
            <mxPoint as="offset" />
          </mxGeometry>
        </mxCell>
        <mxCell id="Rb403pn9LJJC4iDfCMh6-671" value="" style="endArrow=none;html=1;rounded=0;exitX=1;exitY=0.5;exitDx=0;exitDy=0;entryX=0;entryY=0.5;entryDx=0;entryDy=0;" parent="1" source="Rb403pn9LJJC4iDfCMh6-568" target="Rb403pn9LJJC4iDfCMh6-669" edge="1">
          <mxGeometry relative="1" as="geometry" />
        </mxCell>
        <mxCell id="Y43yZf5SG8oLRP0nsFtJ-3" value="N" style="edgeLabel;html=1;align=center;verticalAlign=middle;resizable=0;points=[];" parent="Rb403pn9LJJC4iDfCMh6-671" vertex="1" connectable="0">
          <mxGeometry x="-0.3865" relative="1" as="geometry">
            <mxPoint as="offset" />
          </mxGeometry>
        </mxCell>
        <mxCell id="Rb403pn9LJJC4iDfCMh6-674" value="收藏时间" style="ellipse;whiteSpace=wrap;html=1;align=center;fillColor=#d5e8d4;strokeColor=#82b366;" parent="1" vertex="1">
          <mxGeometry x="-822" y="1734" width="80" height="40" as="geometry" />
        </mxCell>
        <mxCell id="Rb403pn9LJJC4iDfCMh6-675" value="" style="endArrow=none;html=1;rounded=0;exitX=0.5;exitY=1;exitDx=0;exitDy=0;entryX=0.5;entryY=0;entryDx=0;entryDy=0;" parent="1" source="Rb403pn9LJJC4iDfCMh6-674" target="Rb403pn9LJJC4iDfCMh6-669" edge="1">
          <mxGeometry relative="1" as="geometry">
            <mxPoint x="-780" y="1805" as="targetPoint" />
          </mxGeometry>
        </mxCell>
        <mxCell id="Rb403pn9LJJC4iDfCMh6-676" value="教授" style="shape=rhombus;perimeter=rhombusPerimeter;whiteSpace=wrap;html=1;align=center;fillColor=#ffe6cc;strokeColor=#d79b00;rotation=15;" parent="1" vertex="1">
          <mxGeometry x="-224" y="1772" width="100" height="60" as="geometry" />
        </mxCell>
        <mxCell id="Rb403pn9LJJC4iDfCMh6-677" value="" style="endArrow=none;html=1;rounded=0;exitX=1;exitY=0.5;exitDx=0;exitDy=0;entryX=0;entryY=0.5;entryDx=0;entryDy=0;" parent="1" source="Rb403pn9LJJC4iDfCMh6-547" target="Rb403pn9LJJC4iDfCMh6-676" edge="1">
          <mxGeometry relative="1" as="geometry" />
        </mxCell>
        <mxCell id="rJoqaZl6VPZHYxO1Cvjl-1" value="M" style="edgeLabel;html=1;align=center;verticalAlign=middle;resizable=0;points=[];" parent="Rb403pn9LJJC4iDfCMh6-677" vertex="1" connectable="0">
          <mxGeometry x="-0.4513" y="3" relative="1" as="geometry">
            <mxPoint x="-4" y="3" as="offset" />
          </mxGeometry>
        </mxCell>
        <mxCell id="Rb403pn9LJJC4iDfCMh6-678" value="" style="endArrow=none;html=1;rounded=0;exitX=0;exitY=0.5;exitDx=0;exitDy=0;entryX=1;entryY=0.5;entryDx=0;entryDy=0;" parent="1" source="Rb403pn9LJJC4iDfCMh6-590" target="Rb403pn9LJJC4iDfCMh6-676" edge="1">
          <mxGeometry relative="1" as="geometry" />
        </mxCell>
        <mxCell id="rJoqaZl6VPZHYxO1Cvjl-2" value="N" style="edgeLabel;html=1;align=center;verticalAlign=middle;resizable=0;points=[];" parent="Rb403pn9LJJC4iDfCMh6-678" vertex="1" connectable="0">
          <mxGeometry x="-0.1767" y="-1" relative="1" as="geometry">
            <mxPoint as="offset" />
          </mxGeometry>
        </mxCell>
        <mxCell id="Rb403pn9LJJC4iDfCMh6-681" value="选修" style="shape=rhombus;perimeter=rhombusPerimeter;whiteSpace=wrap;html=1;align=center;fillColor=#ffe6cc;strokeColor=#d79b00;rotation=15;" parent="1" vertex="1">
          <mxGeometry x="-245" y="1839" width="100" height="60" as="geometry" />
        </mxCell>
        <mxCell id="Rb403pn9LJJC4iDfCMh6-682" value="" style="endArrow=none;html=1;rounded=0;exitX=1;exitY=0.5;exitDx=0;exitDy=0;entryX=0;entryY=0.5;entryDx=0;entryDy=0;" parent="1" source="Rb403pn9LJJC4iDfCMh6-547" target="Rb403pn9LJJC4iDfCMh6-681" edge="1">
          <mxGeometry relative="1" as="geometry" />
        </mxCell>
        <mxCell id="LP-S8CreKmBgTUgowmXW-1" value="M" style="edgeLabel;html=1;align=center;verticalAlign=middle;resizable=0;points=[];" parent="Rb403pn9LJJC4iDfCMh6-682" vertex="1" connectable="0">
          <mxGeometry x="-0.4278" relative="1" as="geometry">
            <mxPoint as="offset" />
          </mxGeometry>
        </mxCell>
        <mxCell id="Rb403pn9LJJC4iDfCMh6-683" value="" style="endArrow=none;html=1;rounded=0;exitX=0;exitY=0.5;exitDx=0;exitDy=0;entryX=1;entryY=0.5;entryDx=0;entryDy=0;" parent="1" source="Rb403pn9LJJC4iDfCMh6-590" target="Rb403pn9LJJC4iDfCMh6-681" edge="1">
          <mxGeometry relative="1" as="geometry" />
        </mxCell>
        <mxCell id="LP-S8CreKmBgTUgowmXW-5" value="N" style="edgeLabel;html=1;align=center;verticalAlign=middle;resizable=0;points=[];" parent="Rb403pn9LJJC4iDfCMh6-683" vertex="1" connectable="0">
          <mxGeometry x="-0.135" relative="1" as="geometry">
            <mxPoint as="offset" />
          </mxGeometry>
        </mxCell>
        <mxCell id="Rb403pn9LJJC4iDfCMh6-686" value="包含" style="shape=rhombus;perimeter=rhombusPerimeter;whiteSpace=wrap;html=1;align=center;fillColor=#ffe6cc;strokeColor=#d79b00;rotation=60;" parent="1" vertex="1">
          <mxGeometry x="34" y="1951" width="100" height="60" as="geometry" />
        </mxCell>
        <mxCell id="Rb403pn9LJJC4iDfCMh6-687" value="" style="endArrow=none;html=1;rounded=0;exitX=0.5;exitY=1;exitDx=0;exitDy=0;entryX=0;entryY=0.5;entryDx=0;entryDy=0;" parent="1" source="Rb403pn9LJJC4iDfCMh6-590" target="Rb403pn9LJJC4iDfCMh6-686" edge="1">
          <mxGeometry relative="1" as="geometry" />
        </mxCell>
        <mxCell id="rJoqaZl6VPZHYxO1Cvjl-3" value="1" style="edgeLabel;html=1;align=center;verticalAlign=middle;resizable=0;points=[];" parent="Rb403pn9LJJC4iDfCMh6-687" vertex="1" connectable="0">
          <mxGeometry x="-0.4527" y="1" relative="1" as="geometry">
            <mxPoint x="-1" as="offset" />
          </mxGeometry>
        </mxCell>
        <mxCell id="Rb403pn9LJJC4iDfCMh6-688" value="" style="endArrow=none;html=1;rounded=0;exitX=0.5;exitY=0;exitDx=0;exitDy=0;entryX=1;entryY=0.5;entryDx=0;entryDy=0;" parent="1" source="Rb403pn9LJJC4iDfCMh6-599" target="Rb403pn9LJJC4iDfCMh6-686" edge="1">
          <mxGeometry relative="1" as="geometry">
            <mxPoint x="50" y="1968.3012701892221" as="targetPoint" />
          </mxGeometry>
        </mxCell>
        <mxCell id="rJoqaZl6VPZHYxO1Cvjl-4" value="N" style="edgeLabel;html=1;align=center;verticalAlign=middle;resizable=0;points=[];" parent="Rb403pn9LJJC4iDfCMh6-688" vertex="1" connectable="0">
          <mxGeometry x="-0.3616" y="-1" relative="1" as="geometry">
            <mxPoint as="offset" />
          </mxGeometry>
        </mxCell>
        <mxCell id="Rb403pn9LJJC4iDfCMh6-691" value="提交" style="shape=rhombus;perimeter=rhombusPerimeter;whiteSpace=wrap;html=1;align=center;fillColor=#ffe6cc;strokeColor=#d79b00;rotation=60;" parent="1" vertex="1">
          <mxGeometry x="-251" y="1968" width="100" height="60" as="geometry" />
        </mxCell>
        <mxCell id="Rb403pn9LJJC4iDfCMh6-692" value="" style="endArrow=none;html=1;rounded=0;exitX=0.5;exitY=1;exitDx=0;exitDy=0;entryX=0;entryY=0.5;entryDx=0;entryDy=0;" parent="1" source="Rb403pn9LJJC4iDfCMh6-547" target="Rb403pn9LJJC4iDfCMh6-691" edge="1">
          <mxGeometry relative="1" as="geometry" />
        </mxCell>
        <mxCell id="Y43yZf5SG8oLRP0nsFtJ-10" value="1" style="edgeLabel;html=1;align=center;verticalAlign=middle;resizable=0;points=[];" parent="Rb403pn9LJJC4iDfCMh6-692" vertex="1" connectable="0">
          <mxGeometry x="-0.5056" y="1" relative="1" as="geometry">
            <mxPoint as="offset" />
          </mxGeometry>
        </mxCell>
        <mxCell id="Rb403pn9LJJC4iDfCMh6-693" value="" style="endArrow=none;html=1;rounded=0;exitX=0.5;exitY=0;exitDx=0;exitDy=0;entryX=1;entryY=0.5;entryDx=0;entryDy=0;" parent="1" source="Rb403pn9LJJC4iDfCMh6-610" target="Rb403pn9LJJC4iDfCMh6-691" edge="1">
          <mxGeometry relative="1" as="geometry" />
        </mxCell>
        <mxCell id="Y43yZf5SG8oLRP0nsFtJ-11" value="N" style="edgeLabel;html=1;align=center;verticalAlign=middle;resizable=0;points=[];" parent="Rb403pn9LJJC4iDfCMh6-693" vertex="1" connectable="0">
          <mxGeometry x="-0.3598" relative="1" as="geometry">
            <mxPoint as="offset" />
          </mxGeometry>
        </mxCell>
        <mxCell id="Rb403pn9LJJC4iDfCMh6-696" value="批改" style="shape=rhombus;perimeter=rhombusPerimeter;whiteSpace=wrap;html=1;align=center;fillColor=#ffe6cc;strokeColor=#d79b00;rotation=60;" parent="1" vertex="1">
          <mxGeometry x="-324" y="2007" width="100" height="60" as="geometry" />
        </mxCell>
        <mxCell id="Rb403pn9LJJC4iDfCMh6-697" value="" style="endArrow=none;html=1;rounded=0;exitX=0.5;exitY=1;exitDx=0;exitDy=0;entryX=0;entryY=0.5;entryDx=0;entryDy=0;" parent="1" source="Rb403pn9LJJC4iDfCMh6-547" target="Rb403pn9LJJC4iDfCMh6-696" edge="1">
          <mxGeometry relative="1" as="geometry" />
        </mxCell>
        <mxCell id="vDwrlzLkEqvIja-FRnJX-1" value="1" style="edgeLabel;html=1;align=center;verticalAlign=middle;resizable=0;points=[];" parent="Rb403pn9LJJC4iDfCMh6-697" vertex="1" connectable="0">
          <mxGeometry x="-0.4122" relative="1" as="geometry">
            <mxPoint as="offset" />
          </mxGeometry>
        </mxCell>
        <mxCell id="Rb403pn9LJJC4iDfCMh6-698" value="" style="endArrow=none;html=1;rounded=0;exitX=0.5;exitY=0;exitDx=0;exitDy=0;entryX=1;entryY=0.5;entryDx=0;entryDy=0;" parent="1" source="Rb403pn9LJJC4iDfCMh6-610" target="Rb403pn9LJJC4iDfCMh6-696" edge="1">
          <mxGeometry relative="1" as="geometry" />
        </mxCell>
        <mxCell id="vDwrlzLkEqvIja-FRnJX-2" value="N" style="edgeLabel;html=1;align=center;verticalAlign=middle;resizable=0;points=[];" parent="Rb403pn9LJJC4iDfCMh6-698" vertex="1" connectable="0">
          <mxGeometry x="-0.2158" y="1" relative="1" as="geometry">
            <mxPoint as="offset" />
          </mxGeometry>
        </mxCell>
        <mxCell id="Rb403pn9LJJC4iDfCMh6-701" value="属于" style="shape=rhombus;perimeter=rhombusPerimeter;whiteSpace=wrap;html=1;align=center;fillColor=#ffe6cc;strokeColor=#d79b00;rotation=-25;" parent="1" vertex="1">
          <mxGeometry x="-42" y="2111" width="100" height="60" as="geometry" />
        </mxCell>
        <mxCell id="Rb403pn9LJJC4iDfCMh6-702" value="" style="endArrow=none;html=1;rounded=0;exitX=0;exitY=0.5;exitDx=0;exitDy=0;entryX=1;entryY=0.5;entryDx=0;entryDy=0;" parent="1" source="Rb403pn9LJJC4iDfCMh6-599" target="Rb403pn9LJJC4iDfCMh6-701" edge="1">
          <mxGeometry relative="1" as="geometry" />
        </mxCell>
        <mxCell id="rJoqaZl6VPZHYxO1Cvjl-5" value="1" style="edgeLabel;html=1;align=center;verticalAlign=middle;resizable=0;points=[];" parent="Rb403pn9LJJC4iDfCMh6-702" vertex="1" connectable="0">
          <mxGeometry x="-0.2716" y="2" relative="1" as="geometry">
            <mxPoint x="-3" y="-1" as="offset" />
          </mxGeometry>
        </mxCell>
        <mxCell id="Rb403pn9LJJC4iDfCMh6-703" value="" style="endArrow=none;html=1;rounded=0;exitX=1;exitY=0.5;exitDx=0;exitDy=0;entryX=0;entryY=0.5;entryDx=0;entryDy=0;" parent="1" source="Rb403pn9LJJC4iDfCMh6-610" target="Rb403pn9LJJC4iDfCMh6-701" edge="1">
          <mxGeometry relative="1" as="geometry">
            <mxPoint x="-87.30127018922212" y="2124" as="targetPoint" />
          </mxGeometry>
        </mxCell>
        <mxCell id="rJoqaZl6VPZHYxO1Cvjl-6" value="N" style="edgeLabel;html=1;align=center;verticalAlign=middle;resizable=0;points=[];" parent="Rb403pn9LJJC4iDfCMh6-703" vertex="1" connectable="0">
          <mxGeometry x="-0.2893" y="1" relative="1" as="geometry">
            <mxPoint as="offset" />
          </mxGeometry>
        </mxCell>
        <mxCell id="Rb403pn9LJJC4iDfCMh6-706" value="创建" style="shape=rhombus;perimeter=rhombusPerimeter;whiteSpace=wrap;html=1;align=center;fillColor=#ffe6cc;strokeColor=#d79b00;rotation=-93;" parent="1" vertex="1">
          <mxGeometry x="-463" y="2058" width="100" height="60" as="geometry" />
        </mxCell>
        <mxCell id="Rb403pn9LJJC4iDfCMh6-707" value="" style="endArrow=none;html=1;rounded=0;exitX=0.5;exitY=1;exitDx=0;exitDy=0;entryX=1;entryY=0.5;entryDx=0;entryDy=0;" parent="1" source="Rb403pn9LJJC4iDfCMh6-547" target="Rb403pn9LJJC4iDfCMh6-706" edge="1">
          <mxGeometry relative="1" as="geometry" />
        </mxCell>
        <mxCell id="vDwrlzLkEqvIja-FRnJX-3" value="1" style="edgeLabel;html=1;align=center;verticalAlign=middle;resizable=0;points=[];" parent="Rb403pn9LJJC4iDfCMh6-707" vertex="1" connectable="0">
          <mxGeometry x="-0.419" y="1" relative="1" as="geometry">
            <mxPoint as="offset" />
          </mxGeometry>
        </mxCell>
        <mxCell id="Rb403pn9LJJC4iDfCMh6-708" value="" style="endArrow=none;html=1;rounded=0;exitX=0.5;exitY=0;exitDx=0;exitDy=0;entryX=0;entryY=0.5;entryDx=0;entryDy=0;" parent="1" source="Rb403pn9LJJC4iDfCMh6-636" target="Rb403pn9LJJC4iDfCMh6-706" edge="1">
          <mxGeometry relative="1" as="geometry" />
        </mxCell>
        <mxCell id="vDwrlzLkEqvIja-FRnJX-4" value="N" style="edgeLabel;html=1;align=center;verticalAlign=middle;resizable=0;points=[];" parent="Rb403pn9LJJC4iDfCMh6-708" vertex="1" connectable="0">
          <mxGeometry x="-0.7406" y="-3" relative="1" as="geometry">
            <mxPoint y="1" as="offset" />
          </mxGeometry>
        </mxCell>
        <mxCell id="Rb403pn9LJJC4iDfCMh6-711" value="创建班级" style="shape=rhombus;perimeter=rhombusPerimeter;whiteSpace=wrap;html=1;align=center;fillColor=#ffe6cc;strokeColor=#d79b00;rotation=-60;" parent="1" vertex="1">
          <mxGeometry x="-580" y="2162" width="100" height="60" as="geometry" />
        </mxCell>
        <mxCell id="Rb403pn9LJJC4iDfCMh6-712" value="" style="endArrow=none;html=1;rounded=0;exitX=0.5;exitY=1;exitDx=0;exitDy=0;entryX=1;entryY=0.5;entryDx=0;entryDy=0;" parent="1" source="Rb403pn9LJJC4iDfCMh6-547" target="Rb403pn9LJJC4iDfCMh6-711" edge="1">
          <mxGeometry relative="1" as="geometry" />
        </mxCell>
        <mxCell id="Y43yZf5SG8oLRP0nsFtJ-14" value="1" style="edgeLabel;html=1;align=center;verticalAlign=middle;resizable=0;points=[];" parent="Rb403pn9LJJC4iDfCMh6-712" vertex="1" connectable="0">
          <mxGeometry x="-0.6189" relative="1" as="geometry">
            <mxPoint as="offset" />
          </mxGeometry>
        </mxCell>
        <mxCell id="Rb403pn9LJJC4iDfCMh6-713" value="" style="endArrow=none;html=1;rounded=0;exitX=0.5;exitY=0;exitDx=0;exitDy=0;entryX=0;entryY=0.5;entryDx=0;entryDy=0;" parent="1" source="Rb403pn9LJJC4iDfCMh6-625" target="Rb403pn9LJJC4iDfCMh6-711" edge="1">
          <mxGeometry relative="1" as="geometry" />
        </mxCell>
        <mxCell id="Y43yZf5SG8oLRP0nsFtJ-15" value="N" style="edgeLabel;html=1;align=center;verticalAlign=middle;resizable=0;points=[];" parent="Rb403pn9LJJC4iDfCMh6-713" vertex="1" connectable="0">
          <mxGeometry x="-0.4737" relative="1" as="geometry">
            <mxPoint as="offset" />
          </mxGeometry>
        </mxCell>
        <mxCell id="Rb403pn9LJJC4iDfCMh6-716" value="加入" style="shape=rhombus;perimeter=rhombusPerimeter;whiteSpace=wrap;html=1;align=center;fillColor=#ffe6cc;strokeColor=#d79b00;rotation=-55;" parent="1" vertex="1">
          <mxGeometry x="-672" y="2134" width="100" height="60" as="geometry" />
        </mxCell>
        <mxCell id="Rb403pn9LJJC4iDfCMh6-717" value="" style="endArrow=none;html=1;rounded=0;exitX=0.5;exitY=1;exitDx=0;exitDy=0;entryX=1;entryY=0.5;entryDx=0;entryDy=0;" parent="1" source="Rb403pn9LJJC4iDfCMh6-547" target="Rb403pn9LJJC4iDfCMh6-716" edge="1">
          <mxGeometry relative="1" as="geometry" />
        </mxCell>
        <mxCell id="Y43yZf5SG8oLRP0nsFtJ-12" value="N" style="edgeLabel;html=1;align=center;verticalAlign=middle;resizable=0;points=[];" parent="Rb403pn9LJJC4iDfCMh6-717" vertex="1" connectable="0">
          <mxGeometry x="-0.6081" relative="1" as="geometry">
            <mxPoint as="offset" />
          </mxGeometry>
        </mxCell>
        <mxCell id="Rb403pn9LJJC4iDfCMh6-718" value="" style="endArrow=none;html=1;rounded=0;exitX=0.5;exitY=0;exitDx=0;exitDy=0;entryX=0;entryY=0.5;entryDx=0;entryDy=0;" parent="1" source="Rb403pn9LJJC4iDfCMh6-625" target="Rb403pn9LJJC4iDfCMh6-716" edge="1">
          <mxGeometry relative="1" as="geometry" />
        </mxCell>
        <mxCell id="Y43yZf5SG8oLRP0nsFtJ-13" value="1" style="edgeLabel;html=1;align=center;verticalAlign=middle;resizable=0;points=[];" parent="Rb403pn9LJJC4iDfCMh6-718" vertex="1" connectable="0">
          <mxGeometry x="-0.5115" relative="1" as="geometry">
            <mxPoint as="offset" />
          </mxGeometry>
        </mxCell>
        <mxCell id="Rb403pn9LJJC4iDfCMh6-721" value="加入时间" style="ellipse;whiteSpace=wrap;html=1;align=center;fillColor=#d5e8d4;strokeColor=#82b366;" parent="1" vertex="1">
          <mxGeometry x="-742" y="2155" width="80" height="40" as="geometry" />
        </mxCell>
        <mxCell id="Rb403pn9LJJC4iDfCMh6-722" value="" style="endArrow=none;html=1;rounded=0;exitX=1;exitY=0;exitDx=0;exitDy=0;entryX=0.5;entryY=0;entryDx=0;entryDy=0;" parent="1" source="Rb403pn9LJJC4iDfCMh6-721" target="Rb403pn9LJJC4iDfCMh6-716" edge="1">
          <mxGeometry relative="1" as="geometry" />
        </mxCell>
      </root>
    </mxGraphModel>
  </diagram>
</mxfile>
